<?xml version="1.0" encoding="utf-8"?>
<!-- Generator: Adobe Illustrator 26.4.1, SVG Export Plug-In . SVG Version: 6.00 Build 0)  -->
<svg version="1.1" id="Capa_1" xmlns="http://www.w3.org/2000/svg" xmlns:xlink="http://www.w3.org/1999/xlink" x="0px" y="0px"
	 viewBox="0 0 16 16" style="enable-background:new 0 0 16 16;" xml:space="preserve">
<style type="text/css">
	.st0{fill:#0B39FC;}
</style>
<path class="st0" d="M2,0C0.9,0,0,0.9,0,2v12c0,1.1,0.9,2,2,2h12c1.1,0,2-0.9,2-2V2c0-1.1-0.9-2-2-2H2z M6.6,6.2L6.6,6.2L5.4,6.3
	V6.2C5.4,5,6.3,3.8,8,3.8c1.6,0,2.6,0.9,2.6,2.2c0,1-0.6,1.7-1.3,2.4L9.2,8.6l-2,2.2v0.1h3.5V12H5.4v-0.8l3-3.3
	c0.4-0.5,0.9-1,0.9-1.7c0-0.7-0.6-1.2-1.3-1.2C7.1,4.9,6.6,5.5,6.6,6.2z"/>
</svg>
